REM DIRINDEX 1\2,1\3,1\4
REM DIRNAME folder01,folder02,folder03,folder04
TITLE ""
FILE "DISC2Track25.mp3" MP3
  TRACK 01 AUDIO
    TITLE "0:"
    INDEX 01 00:00:00
  TRACK 02 AUDIO
    TITLE "4:cjc105_3460"
    INDEX 01 00:00:13
  TRACK 03 AUDIO
    TITLE "0:"
    INDEX 01 00:02:69
  TRACK 04 AUDIO
    TITLE "3:cjc105_3461"
    INDEX 01 00:03:47
  TRACK 05 AUDIO
    TITLE "2:cjc105_3462"
    INDEX 01 00:04:56
  TRACK 06 AUDIO
    TITLE "3:cjc105_3463"
    INDEX 01 00:05:61
  TRACK 07 AUDIO
    TITLE "2:cjc105_3464"
    INDEX 01 00:06:59
  TRACK 08 AUDIO
    TITLE "3:cjc105_3465"
    INDEX 01 00:08:05
  TRACK 09 AUDIO
    TITLE "2:cjc105_3466"
    INDEX 01 00:08:70
  TRACK 10 AUDIO
    TITLE "3:cjc105_3467"
    INDEX 01 00:09:71
  TRACK 11 AUDIO
    TITLE "2:cjc105_3468"
    INDEX 01 00:10:55
  TRACK 12 AUDIO
    TITLE "3:cjc105_3469"
    INDEX 01 00:12:12
  TRACK 13 AUDIO
    TITLE "2:cjc105_3470"
    INDEX 01 00:12:65
  TRACK 14 AUDIO
    TITLE "3:cjc105_3471"
    INDEX 01 00:13:73
  TRACK 15 AUDIO
    TITLE "2:cjc105_3472"
    INDEX 01 00:15:05
  TRACK 16 AUDIO
    TITLE "3:cjc105_3473"
    INDEX 01 00:16:08
  TRACK 17 AUDIO
    TITLE "2:cjc105_3474"
    INDEX 01 00:17:12
  TRACK 18 AUDIO
    TITLE "3:cjc105_3475"
    INDEX 01 00:18:09
  TRACK 19 AUDIO
    TITLE "2:cjc105_3476"
    INDEX 01 00:19:26
  TRACK 20 AUDIO
    TITLE "3:cjc105_3477"
    INDEX 01 00:20:39
  TRACK 21 AUDIO
    TITLE "2:cjc105_3478"
    INDEX 01 00:21:37
  TRACK 22 AUDIO
    TITLE "3:cjc105_3479"
    INDEX 01 00:22:52
  TRACK 23 AUDIO
    TITLE "2:cjc105_3480"
    INDEX 01 00:23:53
  TRACK 24 AUDIO
    TITLE "3:cjc105_3481"
    INDEX 01 00:25:11
  TRACK 25 AUDIO
    TITLE "2:cjc105_3482"
    INDEX 01 00:26:28
  TRACK 26 AUDIO
    TITLE "3:cjc105_3483"
    INDEX 01 00:27:38
  TRACK 27 AUDIO
    TITLE "2:cjc105_3484"
    INDEX 01 00:28:51
  TRACK 28 AUDIO
    TITLE "3:cjc105_3485"
    INDEX 01 00:29:60
  TRACK 29 AUDIO
    TITLE "2:cjc105_3486"
    INDEX 01 00:30:54
  TRACK 30 AUDIO
    TITLE "3:cjc105_3487"
    INDEX 01 00:32:01
  TRACK 31 AUDIO
    TITLE "2:cjc105_3488"
    INDEX 01 00:32:66
  TRACK 32 AUDIO
    TITLE "3:cjc105_3489"
    INDEX 01 00:34:10
  TRACK 33 AUDIO
    TITLE "2:cjc105_3490"
    INDEX 01 00:35:00
  TRACK 34 AUDIO
    TITLE "3:cjc105_3491"
    INDEX 01 00:36:11
  TRACK 35 AUDIO
    TITLE "2:cjc105_3492"
    INDEX 01 00:37:12
  TRACK 36 AUDIO
    TITLE "3:cjc105_3493"
    INDEX 01 00:39:02
  TRACK 37 AUDIO
    TITLE "2:cjc105_3494"
    INDEX 01 00:39:72
  TRACK 38 AUDIO
    TITLE "3:cjc105_3495"
    INDEX 01 00:40:72
  TRACK 39 AUDIO
    TITLE "2:cjc105_3496"
    INDEX 01 00:42:08
  TRACK 40 AUDIO
    TITLE "3:cjc105_3497"
    INDEX 01 00:43:29
  TRACK 41 AUDIO
    TITLE "2:cjc105_3498"
    INDEX 01 00:44:67
  TRACK 42 AUDIO
    TITLE "3:cjc105_3499"
    INDEX 01 00:46:11
  TRACK 43 AUDIO
    TITLE "2:cjc105_3500"
    INDEX 01 00:47:23
  TRACK 44 AUDIO
    TITLE "3:cjc105_3501"
    INDEX 01 00:48:49
  TRACK 45 AUDIO
    TITLE "2:cjc105_3502"
    INDEX 01 00:50:13
  TRACK 46 AUDIO
    TITLE "3:cjc105_3503"
    INDEX 01 00:51:34
  TRACK 47 AUDIO
    TITLE "2:cjc105_3504"
    INDEX 01 00:52:71
  TRACK 48 AUDIO
    TITLE "3:cjc105_3505"
    INDEX 01 00:54:21
  TRACK 49 AUDIO
    TITLE "2:cjc105_3506"
    INDEX 01 00:55:63
  TRACK 50 AUDIO
    TITLE "3:cjc105_3507"
    INDEX 01 00:57:37
  TRACK 51 AUDIO
    TITLE "2:cjc105_3508"
    INDEX 01 00:58:73
  TRACK 52 AUDIO
    TITLE "3:cjc105_3509"
    INDEX 01 01:00:08
  TRACK 53 AUDIO
    TITLE "2:cjc105_3510"
    INDEX 01 01:01:40
  TRACK 54 AUDIO
    TITLE "3:cjc105_3511"
    INDEX 01 01:02:63
  TRACK 55 AUDIO
    TITLE "2:cjc105_3512"
    INDEX 01 01:04:17
  TRACK 56 AUDIO
    TITLE "3:cjc105_3513"
    INDEX 01 01:05:28
  TRACK 57 AUDIO
    TITLE "2:cjc105_3514"
    INDEX 01 01:06:49
  TRACK 58 AUDIO
    TITLE "3:cjc105_3515"
    INDEX 01 01:08:09
  TRACK 59 AUDIO
    TITLE "2:cjc105_3516"
    INDEX 01 01:09:36
  TRACK 60 AUDIO
    TITLE "3:cjc105_3517"
    INDEX 01 01:11:39
  TRACK 61 AUDIO
    TITLE "2:cjc105_3518"
    INDEX 01 01:12:73
  TRACK 62 AUDIO
    TITLE "3:cjc105_3519"
    INDEX 01 01:14:14
  TRACK 63 AUDIO
    TITLE "2:cjc105_3520"
    INDEX 01 01:15:33
  TRACK 64 AUDIO
    TITLE "3:cjc105_3521"
    INDEX 01 01:16:42
  TRACK 65 AUDIO
    TITLE "2:cjc105_3522"
    INDEX 01 01:17:51
  TRACK 66 AUDIO
    TITLE "3:cjc105_3523"
    INDEX 01 01:18:54
  TRACK 67 AUDIO
    TITLE "2:cjc105_3524"
    INDEX 01 01:19:66
  TRACK 68 AUDIO
    TITLE "0:"
    INDEX 01 01:21:00
